<mxfile host="app.diagrams.net" modified="2021-01-11T10:29:06.522Z" agent="5.0 (Windows)" etag="Y2DKF6s5JVy-A6m4aqC2" version="14.1.8" type="github">
  <diagram id="TtGsBA-I_p3O9PBNzPsG" name="Page-1">
    <mxGraphModel dx="1038" dy="547" grid="1" gridSize="10" guides="1" tooltips="1" connect="1" arrows="1" fold="1" page="1" pageScale="1" pageWidth="1169" pageHeight="827" math="0" shadow="0">
      <root>
        <mxCell id="0" />
        <mxCell id="1" parent="0" />
        <mxCell id="KOu3niUhhm1qWOWi920w-2" value="PROCESSING OF IMPREST WARRANT (STANDING IMPRESTS)" style="swimlane;html=1;childLayout=stackLayout;resizeParent=1;resizeParentMax=0;horizontal=1;startSize=20;horizontalStack=0;" vertex="1" parent="1">
          <mxGeometry x="170" y="9" width="560" height="810" as="geometry" />
        </mxCell>
        <mxCell id="KOu3niUhhm1qWOWi920w-3" value="Staff" style="swimlane;html=1;startSize=20;horizontal=0;" vertex="1" parent="KOu3niUhhm1qWOWi920w-2">
          <mxGeometry y="20" width="560" height="120" as="geometry" />
        </mxCell>
        <mxCell id="KOu3niUhhm1qWOWi920w-4" value="Start" style="rounded=1;whiteSpace=wrap;html=1;" vertex="1" parent="KOu3niUhhm1qWOWi920w-3">
          <mxGeometry x="80" y="10" width="90" height="40" as="geometry" />
        </mxCell>
        <mxCell id="KOu3niUhhm1qWOWi920w-5" value="Prepare request for activities as per work plans" style="rounded=0;whiteSpace=wrap;html=1;" vertex="1" parent="KOu3niUhhm1qWOWi920w-3">
          <mxGeometry x="220" y="50" width="120" height="60" as="geometry" />
        </mxCell>
        <mxCell id="KOu3niUhhm1qWOWi920w-6" value="" style="edgeStyle=orthogonalEdgeStyle;rounded=0;orthogonalLoop=1;jettySize=auto;html=1;" edge="1" parent="KOu3niUhhm1qWOWi920w-3" source="KOu3niUhhm1qWOWi920w-4" target="KOu3niUhhm1qWOWi920w-5">
          <mxGeometry relative="1" as="geometry">
            <mxPoint x="245" y="30" as="targetPoint" />
          </mxGeometry>
        </mxCell>
        <mxCell id="KOu3niUhhm1qWOWi920w-7" value="HoD" style="swimlane;html=1;startSize=20;horizontal=0;" vertex="1" parent="KOu3niUhhm1qWOWi920w-2">
          <mxGeometry y="140" width="560" height="130" as="geometry" />
        </mxCell>
        <mxCell id="KOu3niUhhm1qWOWi920w-8" value="Nominate staff for the event" style="whiteSpace=wrap;html=1;rounded=0;" vertex="1" parent="KOu3niUhhm1qWOWi920w-7">
          <mxGeometry x="210" y="40" width="140" height="60" as="geometry" />
        </mxCell>
        <mxCell id="KOu3niUhhm1qWOWi920w-9" value="Imprest Holder" style="swimlane;html=1;startSize=20;horizontal=0;" vertex="1" parent="KOu3niUhhm1qWOWi920w-2">
          <mxGeometry y="270" width="560" height="120" as="geometry" />
        </mxCell>
        <mxCell id="KOu3niUhhm1qWOWi920w-10" value="Fill in Imprest/Warrant Application Form" style="whiteSpace=wrap;html=1;rounded=0;" vertex="1" parent="KOu3niUhhm1qWOWi920w-9">
          <mxGeometry x="210" y="40" width="140" height="60" as="geometry" />
        </mxCell>
        <mxCell id="KOu3niUhhm1qWOWi920w-11" value="MFA" style="swimlane;html=1;startSize=20;horizontal=0;" vertex="1" parent="KOu3niUhhm1qWOWi920w-2">
          <mxGeometry y="390" width="560" height="120" as="geometry" />
        </mxCell>
        <mxCell id="KOu3niUhhm1qWOWi920w-12" value="Authorization of warrant" style="whiteSpace=wrap;html=1;rounded=0;" vertex="1" parent="KOu3niUhhm1qWOWi920w-11">
          <mxGeometry x="220" y="30" width="120" height="60" as="geometry" />
        </mxCell>
        <mxCell id="KOu3niUhhm1qWOWi920w-13" value="CEO" style="swimlane;html=1;startSize=20;horizontal=0;" vertex="1" parent="KOu3niUhhm1qWOWi920w-2">
          <mxGeometry y="510" width="560" height="120" as="geometry" />
        </mxCell>
        <mxCell id="KOu3niUhhm1qWOWi920w-14" value="Approval/Signing" style="whiteSpace=wrap;html=1;rounded=0;" vertex="1" parent="KOu3niUhhm1qWOWi920w-13">
          <mxGeometry x="220" y="50" width="120" height="60" as="geometry" />
        </mxCell>
        <mxCell id="KOu3niUhhm1qWOWi920w-15" value="APC" style="swimlane;html=1;startSize=20;horizontal=0;" vertex="1" parent="KOu3niUhhm1qWOWi920w-2">
          <mxGeometry y="630" width="560" height="180" as="geometry" />
        </mxCell>
        <mxCell id="KOu3niUhhm1qWOWi920w-16" value="" style="edgeStyle=orthogonalEdgeStyle;rounded=0;orthogonalLoop=1;jettySize=auto;html=1;" edge="1" parent="KOu3niUhhm1qWOWi920w-2" source="KOu3niUhhm1qWOWi920w-5" target="KOu3niUhhm1qWOWi920w-8">
          <mxGeometry relative="1" as="geometry" />
        </mxCell>
        <mxCell id="KOu3niUhhm1qWOWi920w-17" value="" style="edgeStyle=orthogonalEdgeStyle;rounded=0;orthogonalLoop=1;jettySize=auto;html=1;" edge="1" parent="KOu3niUhhm1qWOWi920w-2" source="KOu3niUhhm1qWOWi920w-8" target="KOu3niUhhm1qWOWi920w-10">
          <mxGeometry relative="1" as="geometry" />
        </mxCell>
        <mxCell id="KOu3niUhhm1qWOWi920w-18" value="" style="edgeStyle=orthogonalEdgeStyle;rounded=0;orthogonalLoop=1;jettySize=auto;html=1;" edge="1" parent="KOu3niUhhm1qWOWi920w-2" source="KOu3niUhhm1qWOWi920w-10" target="KOu3niUhhm1qWOWi920w-12">
          <mxGeometry relative="1" as="geometry" />
        </mxCell>
        <mxCell id="KOu3niUhhm1qWOWi920w-19" value="" style="edgeStyle=orthogonalEdgeStyle;rounded=0;orthogonalLoop=1;jettySize=auto;html=1;" edge="1" parent="KOu3niUhhm1qWOWi920w-2" source="KOu3niUhhm1qWOWi920w-12" target="KOu3niUhhm1qWOWi920w-14">
          <mxGeometry relative="1" as="geometry" />
        </mxCell>
        <mxCell id="KOu3niUhhm1qWOWi920w-20" value="" style="edgeStyle=orthogonalEdgeStyle;rounded=0;orthogonalLoop=1;jettySize=auto;html=1;" edge="1" parent="1" source="KOu3niUhhm1qWOWi920w-21" target="KOu3niUhhm1qWOWi920w-23">
          <mxGeometry relative="1" as="geometry">
            <mxPoint x="450" y="789" as="targetPoint" />
          </mxGeometry>
        </mxCell>
        <mxCell id="KOu3niUhhm1qWOWi920w-21" value="Voucher payment process" style="shape=process;whiteSpace=wrap;html=1;backgroundOutline=1;" vertex="1" parent="1">
          <mxGeometry x="380" y="659" width="140" height="60" as="geometry" />
        </mxCell>
        <mxCell id="KOu3niUhhm1qWOWi920w-22" value="" style="edgeStyle=orthogonalEdgeStyle;rounded=0;orthogonalLoop=1;jettySize=auto;html=1;" edge="1" parent="1" source="KOu3niUhhm1qWOWi920w-14" target="KOu3niUhhm1qWOWi920w-21">
          <mxGeometry relative="1" as="geometry">
            <mxPoint x="450" y="689" as="targetPoint" />
          </mxGeometry>
        </mxCell>
        <mxCell id="KOu3niUhhm1qWOWi920w-23" value="End" style="rounded=1;whiteSpace=wrap;html=1;" vertex="1" parent="1">
          <mxGeometry x="410" y="767" width="80" height="50" as="geometry" />
        </mxCell>
      </root>
    </mxGraphModel>
  </diagram>
</mxfile>
